<?xml version="1.0" encoding="UTF-8"?>
<svg width="801px" height="800px" viewBox="0 0 801 800" version="1.1" xmlns="http://www.w3.org/2000/svg" xmlns:xlink="http://www.w3.org/1999/xlink">
    <title>Group</title>
    <g id="Project-Icons" stroke="none" stroke-width="1" fill="none" fill-rule="evenodd">
        <g id="nova" transform="translate(-112, -111)" fill-rule="nonzero">
            <g id="Group" transform="translate(111.9944, 111)">
                <path d="M400.005575,179.998206 C409.461751,179.998206 418.87919,182.790166 428.257893,188.374085 L524.22585,243.466246 L752.146834,373.768964 L755.454625,375.538038 C762.062966,379.087821 768.615236,382.725259 774.88405,386.771668 L776.653598,387.806453 C786.374654,393.546151 795.730471,400.328448 798.218229,413.017966 C798.902048,417.363332 799.134266,421.42285 798.938923,425.229178 L798.894161,425.987078 C797.997748,442.737216 789.524592,454.657938 773.690587,463.67263 C658.361094,529.332844 543.146433,595.198411 428.257893,661.625915 C418.607021,667.205943 409.591599,669.948392 400.617771,670.000008 L400.005977,670.000008 C390.829684,670.071782 381.623826,667.332969 371.753258,661.625915 C256.864717,595.198411 141.650057,529.332844 26.3205634,463.67263 C9.44048242,454.062381 0.900164405,441.205592 1.00557511,422.675797 C1.00557511,420.395053 1.14553441,418.025473 1.44019926,415.561236 C1.52572632,414.802694 1.62346769,414.035494 1.73376329,413.259539 L1.76239052,413.218522 L1.79292128,413.017966 C4.43153145,399.558984 14.7963829,392.745344 25.1285226,386.77274 C32.4407168,382.050857 40.1401483,377.886703 47.8716696,373.764535 L275.788665,243.464673 L371.753258,188.374085 C381.13196,182.790166 390.549399,179.998206 400.005575,179.998206 Z" id="Path" fill="#E25050"></path>
                <path d="M797.623,410.502908 L797.617198,410.455908 L797.631599,410.520237 L797.602548,410.455908 C798.958808,413.329838 799.282445,419.094598 799.311165,423.181552 L799.359075,440.836247 C799.454611,472.541822 799.615815,504.745568 799.903055,536.37173 L800.015832,546.554968 C800.015832,547.529965 800.006506,548.487851 799.964185,549.428824 C799.396618,563.395371 793.030127,573.813789 781.448433,580.790522 C755.736029,596.279654 729.900826,611.564144 704.045521,626.815255 L681.881303,639.883454 C670.799127,646.417461 659.718649,652.954324 648.647951,659.507525 L629.448331,670.879569 C611.269171,681.73742 593.087318,692.590695 574.870996,703.385623 C556.236911,714.428113 537.587668,725.444953 518.934057,736.454402 L514.419165,739.150337 L497.17353,749.469466 C474.390964,763.103858 451.593986,776.712594 428.573939,789.927575 L422.814159,793.222904 C422.462195,793.425916 422.111254,793.626177 421.759793,793.821928 L420.432766,794.57863 C413.841099,798.325601 406.952798,800.082703 400.00775,800 C393.06274,800.082628 386.174592,798.325522 379.583065,794.57863 L378.297098,793.847032 C377.933113,793.642453 377.567881,793.43424 377.203248,793.221165 C344.885838,774.798178 313.042286,755.53983 281.096662,736.461095 C262.4376,725.450527 243.783635,714.430907 225.144835,703.385623 C206.94458,692.600216 188.778733,681.756565 170.615601,670.908299 L151.367881,659.507525 C143.987415,655.138725 136.602603,650.777185 129.215839,646.418913 L95.9703103,626.815255 C70.1150049,611.564144 44.2798025,596.279654 18.5673982,580.790522 C6.99397675,573.818772 0.628311181,563.410252 0.0530483084,549.45861 C0.00967614666,548.508244 0,547.540344 0,546.554968 L0.112529547,536.371008 C0.399978149,504.745457 0.561214684,472.541805 0.656755233,440.836244 L0.702716689,423.598168 C0.71197549,419.632357 0.990712528,413.831202 2.27663407,410.763336 L2.38423208,410.520237 L2.39863347,410.455908 L2.39199974,410.502908 L2.4132835,410.455908 L2.39863347,410.455908 C-0.736875525,433.904767 8.41304148,451.442086 27.9693552,463.74088 L56.7639033,480.169691 C161.859897,539.831463 266.625202,600.082627 371.177191,660.696502 C381.211561,666.513901 390.592326,669.531278 400.007199,669.579235 C409.422982,669.531446 418.803991,666.514064 428.83864,660.696502 C533.390629,600.082627 638.155935,539.831463 743.251524,480.168955 L772.036149,463.746344 C791.208697,451.693461 800.382896,434.607844 797.790625,411.855965 L797.704881,411.134269 L797.602548,410.455908 L797.623,410.502908 Z" id="Path" fill="#9B1F1F"></path>
                <path d="M432.000081,194.059324 C432.033379,259.939731 431.907527,324.888532 431.832076,389.837422 C431.784888,430.47447 431.920202,471.112006 431.754685,511.748442 C431.690636,527.484712 423.121766,539.147911 409.2298,543.503223 C396.226594,547.579771 381.413814,543.284582 374.460099,531.165054 C370.563501,524.3738 368.511562,515.543295 368.480206,507.620133 C368.090427,409.026787 368.22659,310.431333 368.219069,211.836399 C368.218676,206.840636 368.141557,201.844904 368.005575,195.91912 C368.015735,140.365649 368.124028,85.7421817 368.223497,31.1187307 C368.258341,11.9921079 380.246208,0.990080094 401.070086,1 C420.010213,1.00903327 431.814972,12.6035339 431.821522,31.235576 C431.840506,85.199652 431.849301,139.16373 432.000081,194.059324 Z" id="Path" fill="#FFBA33"></path>
                <path d="M231.99611,268.054982 C232.024009,312.572679 232.002843,356.159438 231.757513,399.744944 C231.671239,415.073013 223.503656,426.589251 210.199595,431.178326 C197.225257,435.653568 182.566821,431.868291 175.076759,419.987049 C171.080863,413.648527 168.720276,405.235905 168.524134,397.683018 C167.755728,368.088073 168.143008,338.462701 168.005575,307.918873 C168.014765,255.686879 168.151196,204.384692 168.213757,153.082445 C168.263732,112.101818 168.205235,71.1210875 168.232468,30.1404306 C168.244476,12.1014209 180.805848,0.9904918 201.057184,1 C219.486988,1.00866438 231.806429,12.6753373 231.813068,30.2355256 C231.842847,109.198177 231.846031,188.160843 231.99611,268.054982 Z" id="Path" fill="#FFBA33"></path>
                <path d="M623.998568,302.116319 C624.030923,334.319265 623.948221,365.590848 623.812567,396.862188 C623.720232,418.142482 611.003922,432.756224 592.459651,433 C573.524231,433.242869 560.349884,418.432799 560.306746,396.666804 C560.221016,353.414329 560.210413,310.161671 560.07373,265.979389 C560.08318,187.437276 560.530615,109.822514 560.006357,32.2144196 C559.899966,16.4658174 570.669141,4.42873992 582.244785,1.35231841 C599.405073,-3.20833538 615.111885,4.03849782 621.659375,18.9897734 C623.287219,22.7068935 623.731078,27.2078833 623.736895,31.3499619 C623.862128,121.294791 623.848193,211.239805 623.998568,302.116319 Z" id="Path" fill="#FFBA33"></path>
            </g>
        </g>
    </g>
</svg>
