<?xml version="1.0" encoding="UTF-8"?>
<svg width="1024px" height="1024px" viewBox="0 0 1024 1024" version="1.1" xmlns="http://www.w3.org/2000/svg" xmlns:xlink="http://www.w3.org/1999/xlink">
    <title>nova-logo-nobg</title>
    <g id="nova-logo-nobg" stroke="none" fill="none" fill-rule="evenodd" stroke-width="1">
        <g id="Group">
            <path d="M511.997004,230.397703 C524.10067,230.397703 536.154753,233.971412 548.159255,241.118829 L670.995809,311.636795 L962.728896,478.424274 L966.962784,480.688689 C975.421293,485.232411 983.808033,489.888331 991.831956,495.067735 L994.096933,496.39226 C1006.53964,503.739074 1018.51485,512.420414 1021.69911,528.662997 C1022.57439,534.225065 1022.87162,539.421248 1022.62158,544.293348 L1022.56429,545.26346 C1021.4169,566.703636 1010.57148,581.96216 990.304353,593.500967 C842.685524,677.546041 695.213677,761.853966 548.159255,846.881171 C535.806383,854.023607 524.266871,857.533941 512.780599,857.60001 L511.997518,857.60001 C500.252095,857.69188 488.46883,854.1862 475.834753,846.881171 C328.780331,761.853966 181.308484,677.546041 33.6896545,593.500967 C12.0835784,581.199847 1.15218764,564.743158 1.28711067,541.02502 C1.28711067,538.105667 1.46625503,535.072605 1.84341858,531.918382 C1.95289104,530.947448 2.07799753,529.965432 2.2191731,528.97221 L2.25581523,528.919708 L2.29489382,528.662997 C5.672248,511.435499 18.9389953,502.714041 32.1638724,495.069108 C41.5232958,489.025097 51.3783731,483.694979 61.2745246,478.418605 L353.002506,311.634781 L475.834753,241.118829 C487.839255,233.971412 499.893338,230.397703 511.997004,230.397703 Z" id="Path" fill="#E25050" fill-rule="nonzero"></path>
            <path d="M1020.93724,525.443722 L1020.92981,525.383562 L1020.94824,525.465903 L1020.91106,525.383562 C1022.64704,529.062193 1023.06128,536.441085 1023.09805,541.672386 L1023.15937,564.270396 C1023.28165,604.853532 1023.48799,646.074327 1023.85565,686.555814 L1024,699.590359 C1024,700.838355 1023.98806,702.064449 1023.93389,703.268895 C1023.20742,721.146074 1015.05848,734.48165 1000.2342,743.411868 C967.322974,763.237957 934.254569,782.802105 901.160433,802.323526 L872.790796,819.050822 C858.605892,827.41435 844.42316,835.781535 830.252947,844.169632 L805.67792,858.725849 C782.409055,872.623898 759.136744,886.51609 735.820314,900.333598 C711.969157,914.467985 688.098598,928.56954 664.222448,942.661635 L658.443502,946.112431 L636.369526,959.320916 C607.208418,976.772938 578.028864,994.192121 548.563786,1011.1073 L541.191414,1015.32532 C540.740909,1015.58517 540.291714,1015.84151 539.841852,1016.09207 L538.143291,1017.06065 C529.706124,1021.85677 520.889273,1024.10586 511.999788,1024 C503.110351,1024.10576 494.293696,1021.85667 485.856709,1017.06065 L484.210703,1016.1242 C483.744811,1015.86234 483.277324,1015.59583 482.810603,1015.32309 C441.445137,991.741668 400.686196,967.090983 359.796607,942.670201 C335.91348,928.576675 312.036878,914.471561 288.179686,900.333598 C264.88382,886.528277 241.631996,872.648403 218.383648,858.762622 L193.747053,844.169632 C184.300244,838.577567 174.847872,832.994797 165.393001,827.416208 L122.839566,802.323526 C89.7454303,782.802105 56.6770256,763.237957 23.7657994,743.411868 C8.95211308,734.488028 0.804222396,721.165123 0.067900491,703.307021 C0.0123852226,702.090552 0,700.851641 0,699.590359 L0.144034969,686.55489 C0.511961899,646.074184 0.71834058,604.853511 0.840630063,564.270393 L0.899459562,542.205655 C0.911310592,537.129417 1.26808694,529.703938 2.91403395,525.77707 L3.05175667,525.465903 L3.07019009,525.383562 L3.06169907,525.443722 L3.08894175,525.383562 L3.07019009,525.383562 C-0.943182007,555.398102 10.76848,577.84587 35.8000662,593.588327 L72.6563584,614.617205 C207.176568,690.984273 341.273505,768.105762 475.097403,845.691522 C487.941141,853.137794 499.948283,857.000036 511.999083,857.06142 C524.051046,857.000251 536.0585,853.138002 548.902597,845.691522 C682.726495,768.105762 816.823432,690.984273 951.343124,614.616262 L988.186715,593.59532 C1012.72709,578.16763 1024.46983,556.298041 1021.15179,527.175635 L1021.04204,526.251865 L1020.91106,525.383562 L1020.93724,525.443722 Z" id="Path" fill="#9B1F1F" fill-rule="nonzero"></path>
            <path d="M552.949162,248.395935 C552.991782,332.722855 552.830694,415.85732 552.734119,498.991901 C552.67372,551.007322 552.846919,603.023367 552.63506,655.038005 C552.553079,675.180431 541.585143,690.109325 523.803778,695.684126 C507.160004,700.902106 488.200021,695.404264 479.299441,679.89127 C474.311895,671.198464 471.685465,659.895418 471.64533,649.75377 C471.146422,523.554287 471.320708,397.352106 471.311082,271.150591 C471.310578,264.756015 471.211868,258.361477 471.037815,250.776473 C471.050819,179.66803 471.189431,109.749993 471.316749,39.8319753 C471.361348,15.3498981 486.705515,1.26730252 513.35955,1.28 C537.602434,1.29156259 552.712226,16.1325234 552.720611,39.9815372 C552.74491,109.055555 552.756166,178.129574 552.949162,248.395935 Z" id="Path" fill="#FFBA33" fill-rule="nonzero"></path>
            <path d="M296.949144,343.110377 C296.984854,400.093029 296.957763,455.88408 296.643747,511.673529 C296.533318,531.293456 286.079018,546.034241 269.050157,551.908258 C252.443333,557.636567 233.680906,552.791412 224.093817,537.583422 C218.979171,529.470115 215.95768,518.701958 215.706623,509.034263 C214.723082,471.152733 215.218792,433.232257 215.042881,394.136158 C215.054643,327.279205 215.229272,261.612406 215.309348,195.94553 C215.373314,143.490328 215.29844,91.034992 215.333298,38.5797511 C215.348668,15.4898187 231.426906,1.2678295 257.348103,1.28 C280.937785,1.29109041 296.706357,16.2244318 296.714856,38.7014728 C296.752972,139.773667 296.757047,240.845879 296.949144,343.110377 Z" id="Path" fill="#FFBA33" fill-rule="nonzero"></path>
            <path d="M798.702361,386.708888 C798.743774,427.928659 798.637918,467.956286 798.464284,507.9836 C798.346098,535.222377 782.069543,553.927967 758.333346,554.24 C734.096488,554.550872 717.233658,535.593982 717.178442,507.733509 C717.06871,452.370341 717.055138,397.006938 716.880188,340.453618 C716.892284,239.919713 717.464989,140.572818 716.793952,41.234457 C716.657775,21.0762463 730.442046,5.6687871 745.258577,1.73096756 C767.223311,-4.10666929 787.327632,5.1692772 795.708253,24.30691 C797.791852,29.0648236 798.359981,34.8260907 798.367426,40.1279513 C798.527721,155.257333 798.509885,270.38695 798.702361,386.708888 Z" id="Path" fill="#FFBA33" fill-rule="nonzero"></path>
        </g>
    </g>
</svg>