<?xml version="1.0" encoding="UTF-8"?>
<svg width="1024px" height="1024px" viewBox="0 0 1024 1024" version="1.1" xmlns="http://www.w3.org/2000/svg" xmlns:xlink="http://www.w3.org/1999/xlink">
    <title>marshal-logo-nobg</title>
    <g id="marshal-logo-nobg" stroke="none" fill="none" fill-rule="nonzero">
        <path d="M789,491.957295 C789,534.877026 774.724781,571.520759 746.174342,601.888493 C717.623904,632.256228 679.455409,655.335706 631.66886,671.126928 C672.975877,688.132859 704.158626,710.807434 725.217105,739.150652 C746.275585,767.493871 756.804825,798.671412 756.804825,832.683274 C756.804825,887.345196 731.392909,932.896797 680.569079,969.338078 C629.745249,1005.77936 560.19152,1024 471.907895,1024 C429.790936,1024 394.760965,1020.05219 366.817982,1012.15658 C338.875,1004.26097 316.399123,994.23962 299.390351,982.092527 C282.381579,969.945433 270.333699,956.684856 263.246711,942.310795 C256.159722,927.936734 252.616228,914.473705 252.616228,901.921708 C252.616228,879.652036 259.197003,861.33017 272.358553,846.956109 C285.520102,832.582048 304.654971,825.395018 329.763158,825.395018 C347.581871,825.395018 362.97076,830.051404 375.929825,839.364176 C388.888889,848.676947 399.823099,860.824041 408.732456,875.805457 C417.236842,889.977066 424.425073,905.059707 430.297149,921.053381 C436.169225,937.047054 442.345029,954.154211 448.824561,972.374852 C450.849415,972.779755 453.684211,973.184658 457.328947,973.589561 C460.973684,973.994464 463.80848,974.196916 465.833333,974.196916 C503.900585,974.196916 535.387061,966.90866 560.292763,952.332147 C585.198465,937.755635 597.651316,914.271253 597.651316,881.879004 C597.651316,862.443654 593.601608,846.045077 585.502193,832.683274 C577.402778,819.321471 565.45614,807.376829 549.662281,796.849348 C534.273392,785.916963 513.822368,775.085805 488.309211,764.355872 C462.796053,753.625939 437.48538,743.199684 412.377193,733.077106 C351.226608,708.378015 306.376096,680.338474 277.825658,648.958482 C249.275219,617.57849 235,578.606564 235,532.042705 C235,492.362198 246.541667,457.945433 269.625,428.792408 C292.708333,399.639383 333.61038,374.332938 392.33114,352.873072 C346.974415,334.247529 313.969298,310.661922 293.315789,282.116251 C272.662281,253.570581 262.335526,221.279557 262.335526,185.243179 C262.335526,132.20087 288.658626,88.0664294 341.304825,52.8398577 C393.951023,17.6132859 462.188596,0 546.017544,0 C586.109649,0 620.532164,3.84657968 649.285088,11.539739 C678.038012,19.2328984 701.121345,29.3554765 718.535088,41.9074733 C735.138889,53.6496639 747.085526,66.7077896 754.375,81.0818505 C761.664474,95.4559114 765.309211,109.121392 765.309211,122.078292 C765.309211,143.538157 759.133406,161.657572 746.781798,176.436536 C734.43019,191.2155 714.890351,198.604982 688.162281,198.604982 C669.533626,198.604982 654.043494,193.948596 641.691886,184.635824 C629.340278,175.323053 618.50731,163.175959 609.192982,148.194543 C601.498538,136.04745 594.107822,120.155002 587.020833,100.5172 C579.933845,80.879399 573.960526,64.5820482 569.100877,51.6251483 C566.266082,50.815342 563.228801,50.3092131 559.989035,50.1067616 C556.749269,49.90431 554.116959,49.8030842 552.092105,49.8030842 C514.024854,49.8030842 482.740863,57.3950178 458.240132,72.5788849 C433.739401,87.7627521 421.489035,110.943456 421.489035,142.120996 C421.489035,162.366153 425.639985,178.967181 433.941886,191.924081 C442.243787,204.880981 454.899123,216.825623 471.907895,227.758007 C488.916667,238.690391 509.772661,249.217873 534.475877,259.340451 C559.179094,269.463029 584.894737,279.99051 611.622807,290.922894 C672.368421,315.217082 717.11769,342.750494 745.870614,373.523132 C774.623538,404.295769 789,443.773824 789,491.957295 Z M634.098684,532.650059 C634.098684,511.595097 629.44152,493.678134 620.127193,478.89917 C610.812865,464.120206 597.44883,450.859628 580.035088,439.117438 C564.241228,428.185053 542.271564,416.645314 514.126096,404.498221 C485.980629,392.351127 461.783626,381.823646 441.535088,372.915777 C426.55117,385.872677 414.199561,403.78964 404.480263,426.666667 C394.760965,449.543693 389.901316,471.104784 389.901316,491.349941 C389.901316,512.809806 394.96345,531.131673 405.087719,546.31554 C415.211988,561.499407 428.778509,574.759984 445.787281,586.097272 C464.415936,598.244365 485.778143,609.480427 509.873904,619.805457 C533.969664,630.130486 558.166667,640.556742 582.464912,651.084223 C602.30848,633.673389 615.875,615.047845 623.164474,595.207592 C630.453947,575.367339 634.098684,554.514828 634.098684,532.650059 Z" id="Shape" fill="#A33939"></path>
    </g>
</svg>