<svg xmlns="http://www.w3.org/2000/svg" width="20" height="22" viewBox="0 0 16 18">
  <path d="M.517.396A1.4 1.4 0 0 0 .2 1.26v15.48c0 .32.116.614.317.864L8.862 9z" fill="#4285F4" />
  <path d="M.517 17.604c.244.304.607.496 1.023.496.164 0 .336-.036.5-.112L12.022 12.2 8.862 9z" fill="#34A853" />
  <path d="M.517.396C.76.092 1.124-.1 1.54-.1c.164 0 .336.036.5.112L12.022 5.8 8.862 9z" fill="#EA4335" />
  <path d="M12.022 5.8 15.2 8.1c.5.288.8.644.8.9s-.3.612-.8.9l-3.178 2.3L8.862 9z" fill="#FBBC04" />
</svg>
